:SAMPLES-PER-SECOND 30
:FULLY-SPECIFIED
:DEGREES
139
root  30.7991 19.4409 1.26603 26.7089 86.6791 -18.5933
RightUpLeg  -54.7166 3.49253 4.91562
RightLeg  119.221 9.04623 4.39415
RightFoot  6.28144 0.829181 -4.87584
RightToes  1.16415e-010 -3.18055e-015 8.94531e-016
Spine  53.4914 -1.49047 -3.99094
Spine1  -17.6992 -3.41909 5.6595
HEad  -30.7121 8.19207 4.31544
LeftShoulder1  0 -2.69403e-036 -1.28585e-037
LeftArm  -9.97928 -63.3384 -59.3617
LeftForeArm  6.6838 -6.01226 7.53698
LeftHand  -0.413513 2.46417 16.4703
RightShoulder  -2.48481e-017 0 -8.08114e-019
RightArm  5.91519 27.1467 103.862
RightForeArm  27.8372 6.10412 -0.772688
RightHand  9.35637 -21.8455 -46.7392
LeftUpLeg  -36.4104 -7.51515 -1.64622
LeftLeg  94.08 -11.83 -14.2665
LeftFoot  21.9831 1.0711 -3.14521
LeftToes  4.502e-010 -1.85808e-011 5.37561e-011
140
root  31.6413 19.2243 1.27415 168.333 89.9205 124.863
RightUpLeg  -59.2869 0.862274 4.20301
RightLeg  123.298 7.77836 5.80485
RightFoot  4.63439 0.863027 -5.51379
RightToes  1.16415e-010 -3.18055e-015 8.94531e-016
Spine  53.7817 -2.28829 -3.75046
Spine1  -16.208 -4.19513 7.26079
HEad  -30.5033 7.70447 2.83832
LeftShoulder1  0 -2.69403e-036 -1.28585e-037
LeftArm  -7.17885 -63.1894 -62.9143
LeftForeArm  4.72679 -3.91124 6.51351
LeftHand  -0.34027 2.6249 15.9764
RightShoulder  -2.48481e-017 0 -8.08114e-019
RightArm  5.24814 26.2195 102.441
RightForeArm  29.5064 6.26875 -0.209218
RightHand  9.4901 -21.9176 -47.2488
LeftUpLeg  -31.686 -10.5305 -2.88081
LeftLeg  91.3915 -12.3955 -14.5808
LeftFoot  22.3734 1.25093 -3.65962
LeftToes  4.502e-010 -1.85808e-011 5.37561e-011
141
root  32.538 18.9573 1.27105 131.058 86.2896 89.4864
RightUpLeg  -62.9322 -2.09284 3.64372
RightLeg  125.873 7.11562 6.27149
RightFoot  6.14534 0.881638 -5.22936
RightToes  1.16415e-010 -3.18055e-015 8.94531e-016
Spine  53.8239 -3.36599 -3.25858
Spine1  -14.31 -5.23029 8.80727
HEad  -30.9884 7.2812 1.81187
LeftShoulder1  0 -2.69403e-036 -1.28585e-037
LeftArm  -5.60382 -61.8758 -67.0029
LeftForeArm  5.2926 -3.27388 5.89493
LeftHand  -0.671064 2.31309 20.6205
RightShoulder  -2.48481e-017 0 -8.08114e-019
RightArm  4.50973 25.1668 100.818
RightForeArm  30.9666 6.65083 0.226973
RightHand  9.57916 -21.9528 -47.6256
LeftUpLeg  -26.7203 -13.7742 -3.90857
LeftLeg  88.6597 -13.0146 -15.2976
LeftFoot  22.806 1.65218 -4.83397
LeftToes  4.502e-010 -1.85808e-011 5.37561e-011
142
root  33.4585 18.6788 1.27083 158.298 84.2569 118.181
RightUpLeg  -65.7313 -4.30826 3.60148
RightLeg  127.457 6.22445 7.08964
RightFoot  12.1103 1.178 -5.20158
RightToes  1.16415e-010 -3.18055e-015 8.94531e-016
Spine  53.6053 -4.12386 -2.4851
Spine1  -12.5554 -5.81384 10.2016
HEad  -32.0087 6.35884 1.17146
LeftShoulder1  0 -2.69403e-036 -1.28585e-037
LeftArm  -5.16589 -60.2079 -71.0632
LeftForeArm  6.84412 -3.6126 5.87667
LeftHand  -1.18674 1.77218 26.7876
RightShoulder  -2.48481e-017 0 -8.08114e-019
RightArm  3.88743 23.7128 98.7567
RightForeArm  31.3952 7.38545 0.518777
RightHand  9.77118 -22.1095 -48.1635
LeftUpLeg  -22.2914 -16.1497 -3.95661
LeftLeg  86.1208 -13.7154 -16.6232
LeftFoot  22.9427 2.0429 -6.00367
LeftToes  4.502e-010 -1.85808e-011 5.37561e-011
143
root  34.4272 18.4155 1.28123 170.456 82.9432 130.936
RightUpLeg  -67.7607 -5.03125 4.37524
RightLeg  128.481 4.05526 9.47661
RightFoot  18.0445 1.07023 -3.9243
RightToes  1.16415e-010 -3.18055e-015 8.94531e-016
Spine  53.0448 -4.25384 -1.04276
Spine1  -11.469 -5.39523 11.6883
HEad  -32.6807 4.59859 0.473079
LeftShoulder1  0 -2.69403e-036 -1.28585e-037
LeftArm  -4.43966 -58.0511 -75.7142
LeftForeArm  7.87309 -4.97735 6.21542
LeftHand  -1.63036 1.27726 30.9163
RightShoulder  -2.48481e-017 0 -8.08114e-019
RightArm  4.37542 21.6134 95.9495
RightForeArm  30.4738 8.38179 0.816582
RightHand  10.1336 -22.4257 -49.0752
LeftUpLeg  -18.9923 -17.5193 -2.59869
LeftLeg  83.6742 -14.5606 -18.2312
LeftFoot  23.0616 2.19057 -6.42697
LeftToes  4.502e-010 -1.85808e-011 5.37561e-011
144
root  35.4616 18.1812 1.31656 -174.321 81.7028 145.909
RightUpLeg  -68.3196 -4.76447 6.0074
RightLeg  128.596 1.35123 12.668
RightFoot  19.8608 0.74722 -2.52235
RightToes  1.16415e-010 -3.18055e-015 8.94531e-016
Spine  52.0321 -4.05416 1.52273
Spine1  -11.0763 -4.10074 13.2092
HEad  -32.1628 2.03725 -0.0668942
LeftShoulder1  0 -2.69403e-036 -1.28585e-037
LeftArm  -1.88092 -55.3076 -82.2663
LeftForeArm  8.79986 -6.48115 6.36153
LeftHand  -1.9437 0.890735 33.0576
RightShoulder  -2.48481e-017 0 -8.08114e-019
RightArm  7.68501 18.0569 92.2165
RightForeArm  27.2002 10.5328 0.281393
RightHand  10.3615 -22.6116 -49.6773
LeftUpLeg  -16.8276 -18.7674 -0.0714394
LeftLeg  80.9769 -15.5269 -19.2674
LeftFoot  23.8477 2.18301 -6.25437
LeftToes  4.502e-010 -1.85808e-011 5.37561e-011
145
root  36.5717 18.002 1.40716 -160.413 79.8881 159.138
RightUpLeg  -66.5928 -4.26715 8.53251
RightLeg  127.226 0.0744229 14.8156
RightFoot  19.0032 0.944676 -3.31351
RightToes  1.16415e-010 -3.18055e-015 8.94531e-016
Spine  50.756 -3.74211 4.99617
Spine1  -11.0556 -2.21537 13.6512
HEad  -30.7983 -1.10418 0.345335
LeftShoulder1  0 -2.69403e-036 -1.28585e-037
LeftArm  2.62956 -52.5146 -90.6136
LeftForeArm  10.6823 -7.09445 5.90591
LeftHand  -2.23869 0.557977 35.021
RightShoulder  -2.48481e-017 0 -8.08114e-019
RightArm  17.7217 11.8533 87.6794
RightForeArm  15.7652 15.0892 -5.04698
RightHand  9.94903 -22.2597 -48.6344
LeftUpLeg  -15.1613 -19.8802 3.19962
LeftLeg  77.5653 -16.642 -19.5135
LeftFoot  25.4229 2.27901 -6.23294
LeftToes  4.502e-010 -1.85808e-011 5.37561e-011
146
root  37.7729 17.9303 1.54041 -147.757 78.4673 171.12
RightUpLeg  -63.3387 -3.31821 12.0713
RightLeg  124.755 0.943712 14.9075
RightFoot  17.5965 0.915167 -3.35913
RightToes  1.16415e-010 -3.18055e-015 8.94531e-016
Spine  49.8508 -3.20375 8.71715
Spine1  -11.06 0.201715 11.7633
HEad  -29.8916 -4.19748 1.80941
LeftShoulder1  0 -2.69403e-036 -1.28585e-037
LeftArm  7.4165 -50.0496 -98.1402
LeftForeArm  13.2561 -7.28956 4.80116
LeftHand  -2.53447 0.302526 37.303
RightShoulder  -2.48481e-017 0 -8.08114e-019
RightArm  29.2924 3.27524 83.7353
RightForeArm  -1.1773 19.4318 -16.9837
RightHand  8.88567 -21.335 -45.7049
LeftUpLeg  -13.137 -19.4937 6.9274
LeftLeg  73.1282 -18.2131 -19.8511
LeftFoot  27.4844 2.40289 -6.20702
LeftToes  4.502e-010 -1.85808e-011 5.37561e-011
147
root  38.9893 17.9354 1.6522 -132.048 78.1892 -173.858
RightUpLeg  -60.1979 -1.43183 15.6933
RightLeg  122.535 2.84794 13.3074
RightFoot  14.8807 0.4385 -1.74214
RightToes  1.16415e-010 -3.18055e-015 8.94531e-016
Spine  49.6729 -2.32875 11.7362
Spine1  -11.123 2.86771 7.93796
HEad  -30.0542 -6.24199 3.36064
LeftShoulder1  0 -2.69403e-036 -1.28585e-037
LeftArm  10.5187 -47.8724 -102.736
LeftForeArm  15.7356 -8.404 3.48255
LeftHand  -2.74216 0.167348 39.0821
RightShoulder  -2.48481e-017 0 -8.08114e-019
RightArm  25.7016 -4.333 81.3976
RightForeArm  -3.97457 24.8987 -26.3429
RightHand  7.84964 -20.3874 -42.5727
LeftUpLeg  -10.5626 -17.1696 10.2969
LeftLeg  68.1614 -20.341 -20.6861
LeftFoot  29.9844 2.23754 -5.39334
LeftToes  4.502e-010 -1.85808e-011 5.37561e-011
148
root  40.0877 17.9421 1.70949 -114.638 78.2285 -157.445
RightUpLeg  -58.2203 1.00117 17.8772
RightLeg  121.479 4.67072 11.0001
RightFoot  9.55141 0.0799712 -0.390193
RightToes  1.16415e-010 -3.18055e-015 8.94531e-016
Spine  49.8389 -1.34792 13.3746
Spine1  -11.7472 5.00406 4.3148
HEad  -30.5278 -6.82792 4.2324
LeftShoulder1  0 -2.69403e-036 -1.28585e-037
LeftArm  11.285 -45.472 -103.94
LeftForeArm  17.4258 -10.6568 2.76826
LeftHand  -2.85435 0.106006 40.0709
RightShoulder  -2.48481e-017 0 -8.08114e-019
RightArm  15.3728 -7.51126 80.5338
RightForeArm  1.98988 31.7 -30.9527
RightHand  7.35332 -19.9192 -40.9167
LeftUpLeg  -8.45281 -14.7299 12.3107
LeftLeg  63.7747 -21.9603 -20.605
LeftFoot  32.5096 1.91701 -4.2822
LeftToes  4.502e-010 -1.85808e-011 5.37561e-011
149
root  41.0124 17.971 1.76124 -104.099 78.0562 -148.187
RightUpLeg  -57.1449 3.03524 17.8129
RightLeg  120.799 6.02085 9.07648
RightFoot  3.89494 0.156044 -1.15956
RightToes  1.16415e-010 -3.18055e-015 8.94531e-016
Spine  49.9309 -0.673041 13.6499
Spine1  -13.2599 5.96761 2.34329
HEad  -30.3674 -6.75556 4.76416
LeftShoulder1  0 -2.69403e-036 -1.28585e-037
LeftArm  11.2696 -42.5018 -104.011
LeftForeArm  18.4546 -12.5799 2.85196
LeftHand  -2.97248 0.0179412 40.9323
RightShoulder  -2.48481e-017 0 -8.08114e-019
RightArm  11.9345 -5.58836 79.6819
RightForeArm  3.63511 35.852 -34.63
RightHand  7.18045 -19.7354 -40.3698
LeftUpLeg  -8.16225 -13.7713 12.8177
LeftLeg  61.1495 -21.4439 -18.0143
LeftFoot  33.3248 1.9347 -4.22498
LeftToes  4.502e-010 -1.85808e-011 5.37561e-011
150
root  41.8368 18.1535 1.85329 -104.493 78.0405 -149.739
RightUpLeg  -56.0864 4.16437 16.1093
RightLeg  119.178 6.50846 8.76784
RightFoot  0.670966 0.209741 -1.67736
RightToes  1.16415e-010 -3.18055e-015 8.94531e-016
Spine  50.1096 -0.573406 13.2806
Spine1  -15.2132 5.88626 1.50058
HEad  -29.6164 -7.19474 5.53781
LeftShoulder1  0 -2.69403e-036 -1.28585e-037
LeftArm  10.7552 -39.7508 -104.803
LeftForeArm  20.7222 -12.6156 2.68019
LeftHand  -3.15804 -0.136321 42.1325
RightShoulder  -2.48481e-017 0 -8.08114e-019
RightArm  10.4484 -0.139263 77.2691
RightForeArm  3.46171 37.7118 -36.3869
RightHand  6.90959 -19.4398 -39.5055
LeftUpLeg  -9.99077 -13.5725 12.6408
LeftLeg  61.1775 -18.9853 -13.7196
LeftFoot  30.8336 2.20876 -5.21345
LeftToes  4.502e-010 -1.85808e-011 5.37561e-011
151
root  42.6173 18.5146 1.97371 -111.734 78.2822 -157.661
RightUpLeg  -54.3731 4.50559 13.8144
RightLeg  116.484 6.08033 10.5298
RightFoot  -0.238423 0.112595 -1.00131
RightToes  1.16415e-010 -3.18055e-015 8.94531e-016
Spine  50.6252 -0.846988 12.6818
Spine1  -16.8035 5.33255 0.670623
HEad  -29.072 -8.46978 6.48956
LeftShoulder1  0 -2.69403e-036 -1.28585e-037
LeftArm  10.3846 -37.715 -106.42
LeftForeArm  23.9052 -11.1857 1.89536
LeftHand  -3.37368 -0.312353 43.4786
RightShoulder  -2.48481e-017 0 -8.08114e-019
RightArm  8.96836 7.17556 73.3635
RightForeArm  2.45819 37.3718 -35.9954
RightHand  6.50126 -19.0373 -37.9651
LeftUpLeg  -13.2417 -12.7464 12.3192
LeftLeg  64.1454 -16.4848 -10.1081
LeftFoot  26.0697 2.10135 -5.6151
LeftToes  4.502e-010 -1.85808e-011 5.37561e-011
